<?xml version="1.0" encoding="UTF-8"?>
<!-- Generator: visioncortex VTracer 0.6.3 -->
<svg version="1.1" xmlns="http://www.w3.org/2000/svg" width="512" height="512">
<path d="M0,0 L400,0 L400,220 L396,224 L4,224 L0,220 Z M48,24 L42,27 L40,32 L40,192 L43,198 L48,200 L352,200 L358,197 L360,192 L360,32 L357,26 L352,24 Z " fill="#000000" transform="translate(56,256)"/>
<path d="M0,0 L288,0 L288,144 L0,144 Z M24,24 L24,40 L72,40 L72,24 Z M88,24 L88,40 L264,40 L264,24 Z M24,64 L24,80 L264,80 L264,64 Z M24,104 L24,120 L264,120 L264,104 Z " fill="#000000" transform="translate(112,296)"/>
<path d="M0,0 L37,0 L51,18 L65,37 L78,54 L77,59 L61,80 L47,99 L37,112 L0,112 Z M16,16 L16,32 L32,32 L32,16 Z M16,80 L16,96 L32,96 L32,80 Z " fill="#000000" transform="translate(56,128)"/>
<path d="M0,0 L6,0 L19,11 L29,19 L45,32 L51,37 L50,39 L11,49 L6,48 L-10,35 L-24,24 L-37,13 L-39,12 L-39,10 Z " fill="#000000" transform="translate(329,62)"/>
<path d="M0,0 L5,3 L21,16 L37,29 L48,38 L47,40 L7,50 L3,49 L-11,38 L-24,27 L-38,16 L-41,11 L-20,5 Z " fill="#000000" transform="translate(146,108)"/>
<path d="M0,0 L6,1 L20,13 L34,24 L50,37 L50,39 L11,49 L4,48 L-10,36 L-24,25 L-40,12 L-39,10 Z " fill="#000000" transform="translate(392,46)"/>
<path d="M0,0 L4,1 L15,10 L31,23 L45,34 L49,37 L49,39 L31,44 L7,50 L3,48 L-14,34 L-24,26 L-40,13 L-41,11 L-23,6 Z " fill="#000000" transform="translate(269,77)"/>
<path d="M0,0 L6,1 L15,9 L29,20 L46,34 L50,37 L50,39 L10,49 L4,48 L-10,36 L-24,25 L-40,12 L-40,10 Z " fill="#000000" transform="translate(206,93)"/>
<path d="M0,0 L45,0 L43,4 L29,23 L13,44 L10,48 L-35,48 L-33,44 L-19,25 L-3,4 Z " fill="#000000" transform="translate(395,192)"/>
<path d="M0,0 L45,0 L43,4 L29,23 L13,44 L10,48 L-35,48 L-33,44 L-19,25 L-3,4 Z " fill="#000000" transform="translate(331,192)"/>
<path d="M0,0 L45,0 L43,4 L29,23 L13,44 L10,48 L-35,48 L-33,44 L-19,25 L-3,4 Z " fill="#000000" transform="translate(267,192)"/>
<path d="M0,0 L45,0 L43,4 L29,23 L13,44 L10,48 L-35,48 L-33,44 L-19,25 L-3,4 Z " fill="#000000" transform="translate(203,192)"/>
<path d="M0,0 L37,0 L35,4 L21,23 L5,44 L2,48 L-35,48 L-33,44 L-19,25 L-3,4 Z " fill="#000000" transform="translate(147,192)"/>
<path d="M0,0 L2,0 L7,18 L12,38 L12,43 L4,37 L-9,26 L-23,15 L-30,9 L-28,7 Z " fill="#000000" transform="translate(444,33)"/>
<path d="M0,0 L1,0 L1,43 L-31,43 L-29,39 L-15,20 Z " fill="#000000" transform="translate(455,197)"/>
</svg>
